<svg width="1200" height="711" viewBox="0 0 1200 711" fill="none" xmlns="http://www.w3.org/2000/svg">
<rect width="1200" height="700" rx="10" fill="#1E2124"/>
<rect x="64" width="891" height="700" fill="#36393E"/>
<rect x="64" width="240" height="700" fill="#2E3136"/>
<rect x="98" y="347" width="67" height="15" rx="7.5" fill="#55585B"/>
<circle cx="88.5" cy="354.5" r="5.5" fill="#55585B"/>
<path d="M306 0H1190C1195.52 0 1200 4.47715 1200 10V50H306V0Z" fill="#36393E"/>
<line x1="64" y1="45.5" x2="304.052" y2="45.5" stroke="#1F2125" stroke-width="3"/>
<line x1="304" y1="45.5" x2="1200" y2="45.5" stroke="#282B30" stroke-width="3"/>
<line x1="64" y1="601.5" x2="304" y2="601.5" stroke="#1C1E22" stroke-width="3"/>
<line x1="64" y1="648.5" x2="304" y2="648.5" stroke="#1C1E22" stroke-width="3"/>
<circle cx="33" cy="45" r="20" fill="white"/>
<circle cx="92.5" cy="674.5" r="17.5" fill="#FF0000"/>
<circle cx="340.5" cy="271.5" r="17.5" fill="#ECB22D"/>
<circle cx="340.5" cy="111.5" r="17.5" fill="#FF0000"/>
<circle cx="340.5" cy="187.5" r="17.5" fill="#2FB67E"/>
<circle cx="340.5" cy="568.5" r="17.5" fill="#36C5F1"/>
<circle cx="340.5" cy="485.5" r="17.5" fill="#7289DA"/>
<circle cx="33" cy="154" r="20" fill="#2E3136"/>
<circle cx="33" cy="204" r="20" fill="#2E3136"/>
<circle cx="33" cy="254" r="20" fill="#2E3136"/>
<circle cx="33" cy="304" r="20" fill="#2E3136"/>
<circle cx="33" cy="354" r="17.5" stroke="#4B4D4F" stroke-width="5"/>
<rect x="13" y="84" width="40" height="40" rx="7" fill="#7289DA"/>
<path d="M955 47H1200V690C1200 695.523 1195.52 700 1190 700H955V47Z" fill="#2E3136"/>
<rect x="121" y="450" width="110" height="15" rx="7.5" fill="#55585B"/>
<circle cx="110.5" cy="457.5" r="5.5" fill="#2FB67E"/>
<rect x="121" y="425" width="110" height="15" rx="7.5" fill="#55585B"/>
<circle cx="110.5" cy="432.5" r="5.5" fill="#E01F5A"/>
<rect x="121" y="400" width="110" height="15" rx="7.5" fill="#55585B"/>
<circle cx="110.5" cy="407.5" r="5.5" fill="#2FB67E"/>
<rect x="121" y="375" width="110" height="15" rx="7.5" fill="#55585B"/>
<circle cx="110.5" cy="382.5" r="5.5" fill="#FFB8B8"/>
<rect x="121" y="296" width="110" height="15" rx="7.5" fill="#55585B"/>
<circle cx="110.5" cy="303.5" r="5.5" fill="#FFBD30"/>
<rect x="121" y="271" width="110" height="15" rx="7.5" fill="#55585B"/>
<circle cx="110.5" cy="278.5" r="5.5" fill="#7289DA"/>
<rect x="121" y="246" width="110" height="15" rx="7.5" fill="#55585B"/>
<circle cx="110.5" cy="253.5" r="5.5" fill="#E01F5A"/>
<rect x="121" y="221" width="110" height="15" rx="7.5" fill="#55585B"/>
<circle cx="110.5" cy="228.5" r="5.5" fill="#2FB67E"/>
<rect x="121" y="321" width="110" height="15" rx="7.5" fill="#55585B"/>
<circle cx="110.5" cy="328.5" r="5.5" fill="#1E9BD1"/>
<rect x="98" y="511" width="124" height="15" rx="7.5" fill="#55585B"/>
<circle cx="88.5" cy="518.5" r="5.5" fill="#55585B"/>
<rect x="98" y="541" width="150" height="15" rx="7.5" fill="#55585B"/>
<circle cx="88.5" cy="548.5" r="5.5" fill="#55585B"/>
<rect x="346" y="665" width="150" height="15" rx="7.5" fill="#55585B"/>
<circle cx="336.5" cy="672.5" r="5.5" fill="#55585B"/>
<rect x="98" y="619" width="150" height="15" rx="7.5" fill="#2FB67E"/>
<circle cx="88.5" cy="626.5" r="5.5" fill="#2FB67E"/>
<rect x="98" y="195" width="150" height="15" rx="7.5" fill="#55585B"/>
<circle cx="88.5" cy="202.5" r="5.5" fill="#55585B"/>
<rect x="98" y="65" width="124" height="15" rx="7.5" fill="#55585B"/>
<circle cx="88.5" cy="72.5" r="5.5" fill="#55585B"/>
<rect x="342" y="16" width="124" height="15" rx="7.5" fill="#55585B"/>
<circle cx="332.5" cy="23.5" r="5.5" fill="#55585B"/>
<rect x="98" y="109" width="85" height="15" rx="7.5" fill="#55585B"/>
<rect x="88" y="16" width="130" height="15" rx="7.5" fill="#55585B"/>
<rect x="478" y="16" width="413" height="15" rx="7.5" fill="#55585B"/>
<circle cx="88.5" cy="116.5" r="5.5" fill="#55585B"/>
<rect x="98" y="153" width="169" height="15" rx="7.5" fill="#55585B"/>
<circle cx="88.5" cy="160.5" r="5.5" fill="#55585B"/>
<circle cx="105.5" cy="685.5" r="7" fill="#2FB67E" stroke="#2E3136" stroke-width="3"/>
<circle cx="92.5" cy="674.5" r="17.5" fill="#FF0000"/>
<circle cx="105.5" cy="685.5" r="7" fill="#2FB67E" stroke="#2E3136" stroke-width="3"/>
<circle cx="983.5" cy="114.5" r="17.5" fill="#FF0000"/>
<circle cx="996.5" cy="125.5" r="7" fill="#2FB67E" stroke="#2E3136" stroke-width="3"/>
<rect x="267" y="375" width="15" height="15" rx="7.5" fill="#E01F5A"/>
<rect x="267" y="221" width="15" height="15" rx="7.5" fill="#E01F5A"/>
<rect x="371" y="94" width="95" height="15" rx="7.5" fill="#55585B"/>
<rect x="472" y="94" width="54" height="15" rx="7.5" fill="#55585B"/>
<rect x="369" y="117" width="218" height="15" rx="7.5" fill="#55585B"/>
<rect x="966" y="63" width="142" height="15" rx="7.5" fill="#55585B"/>
<rect x="1012" y="97" width="142" height="15" rx="7.5" fill="#55585B"/>
<rect x="1012" y="117" width="88" height="15" rx="7.5" fill="#55585B"/>
<rect x="1013" y="224" width="170" height="15" rx="7.5" fill="#55585B"/>
<rect x="1013" y="244" width="105.352" height="15" rx="7.5" fill="#55585B"/>
<rect x="1012" y="424" width="170" height="15" rx="7.5" fill="#55585B"/>
<rect x="1012" y="444" width="105.352" height="15" rx="7.5" fill="#55585B"/>
<rect width="170" height="15" rx="7.5" transform="matrix(1 0 0 -1 1013 332)" fill="#55585B"/>
<rect width="105.352" height="15" rx="7.5" transform="matrix(1 0 0 -1 1013 312)" fill="#55585B"/>
<rect width="84" height="15" rx="7.5" transform="matrix(1 0 0 -1 1013 395)" fill="#55585B"/>
<rect width="52.0563" height="15" rx="7.5" transform="matrix(1 0 0 -1 1013 375)" fill="#55585B"/>
<rect x="1012" y="160" width="88" height="15" rx="7.5" fill="#55585B"/>
<rect x="1012" y="180" width="55" height="15" rx="7.5" fill="#55585B"/>
<rect x="981" y="634" width="123" height="15" rx="7.5" fill="#55585B"/>
<rect x="1016" y="665" width="77" height="15" rx="7.5" fill="#55585B"/>
<rect x="371" y="170" width="181" height="15" rx="7.5" fill="#55585B"/>
<rect x="563" y="170" width="104" height="15" rx="7.5" fill="#55585B"/>
<rect x="371" y="198" width="415" height="15" rx="7.5" fill="#55585B"/>
<rect x="435" y="282" width="249" height="15" rx="7.5" fill="#55585B"/>
<rect x="371" y="308" width="289" height="119" rx="10" fill="#55585B"/>
<rect x="371" y="256" width="159" height="15" rx="7.5" fill="#55585B"/>
<rect x="371" y="282" width="35" height="15" rx="7.5" fill="#55585B"/>
<rect x="413" y="282" width="15" height="15" rx="7.5" fill="#55585B"/>
<rect x="482" y="495" width="431" height="15" rx="7.5" fill="#55585B"/>
<rect x="371" y="551" width="431" height="15" rx="7.5" fill="#55585B"/>
<rect x="371" y="468" width="275" height="15" rx="7.5" fill="#55585B"/>
<rect x="371" y="578" width="275" height="15" rx="7.5" fill="#55585B"/>
<rect x="371" y="495" width="61" height="15" rx="7.5" fill="#55585B"/>
<rect x="444" y="495" width="26" height="15" rx="7.5" fill="#55585B"/>
<rect x="317.5" y="653.5" width="622" height="39" rx="3.5" stroke="#55585B" stroke-width="3"/>
<circle cx="983.5" cy="177.5" r="17.5" fill="#2FB67E"/>
<circle cx="996.5" cy="189.5" r="7" fill="#2FB67E" stroke="#2E3136" stroke-width="3"/>
<circle cx="983.5" cy="241.5" r="17.5" fill="#6E4C6F"/>
<circle cx="996.5" cy="252.5" r="7" fill="#2FB67E" stroke="#2E3136" stroke-width="3"/>
<circle cx="983.5" cy="314.5" r="17.5" fill="#36C5F1"/>
<circle cx="996.5" cy="325.5" r="7" fill="#2FB67E" stroke="#2E3136" stroke-width="3"/>
<circle cx="983.5" cy="377.5" r="17.5" fill="#FF6158"/>
<circle cx="996.5" cy="389.5" r="7" fill="#2FB67E" stroke="#2E3136" stroke-width="3"/>
<circle cx="983.5" cy="441.5" r="17.5" fill="#0038FF"/>
<circle cx="993" cy="673" r="12" fill="#FF0000"/>
<circle cx="996.5" cy="452.5" r="7" fill="#2FB67E" stroke="#2E3136" stroke-width="3"/>
<path d="M183 693.696L194.848 696.85L212.649 652.654L195.164 648L183 693.696Z" fill="#FFB8B8"/>
<path d="M232.013 521.302C230.55 521.158 229.136 520.696 227.871 519.947C226.605 519.199 225.52 518.181 224.691 516.968C223.861 515.754 223.308 514.373 223.07 512.922C222.832 511.472 222.915 509.987 223.313 508.571L197.68 484.71L211.232 481.272L236.438 501.716C238.771 502.542 240.72 504.195 241.916 506.363C243.111 508.53 243.47 511.06 242.925 513.475C242.379 515.889 240.967 518.019 238.956 519.462C236.945 520.904 234.474 521.559 232.013 521.302Z" fill="#FFB8B8"/>
<path d="M267.407 697.663H279.667L285.499 650.375H267.405L267.407 697.663Z" fill="#FFB8B8"/>
<path d="M303.311 709.046L264.781 709.048L264.78 694.161L288.424 694.16C292.372 694.16 296.159 695.728 298.951 698.52C301.743 701.311 303.311 705.098 303.312 709.046L303.311 709.046Z" fill="black"/>
<path d="M215.116 709.05L177.882 699.139L181.711 684.753L204.56 690.835C208.375 691.85 211.631 694.34 213.611 697.756C215.59 701.172 216.132 705.234 215.116 709.05Z" fill="black"/>
<path d="M282.964 688.71H264.257C263.075 688.714 261.935 688.276 261.06 687.481C260.186 686.687 259.64 685.594 259.531 684.417L248.175 566.486C248.091 565.621 247.71 564.811 247.096 564.196C246.482 563.581 245.673 563.199 244.808 563.115C243.943 563.03 243.076 563.249 242.355 563.733C241.633 564.218 241.103 564.938 240.854 565.771L207.88 675.97C207.531 677.141 206.744 678.133 205.682 678.738C204.62 679.342 203.365 679.514 202.18 679.216L184.777 674.864C184.17 674.713 183.598 674.442 183.096 674.069C182.593 673.695 182.17 673.226 181.849 672.688C181.529 672.15 181.318 671.554 181.229 670.935C181.14 670.315 181.174 669.684 181.33 669.077C181.614 667.967 209.74 558.049 209.986 556.919C216.359 509.951 223.983 497.366 228.079 490.605C228.418 490.045 228.73 489.531 229.01 489.044C229.361 488.436 231.523 482.4 232.894 478.48C233.072 477.842 233.38 477.248 233.799 476.736C234.218 476.223 234.739 475.803 235.329 475.502C252.539 466.7 272.676 472.793 278.438 474.87C279.393 475.207 280.214 475.844 280.776 476.686C298.061 502.757 289.578 654.177 287.702 684.267C287.624 685.471 287.091 686.599 286.211 687.425C285.331 688.25 284.171 688.709 282.964 688.71Z" fill="black"/>
<path d="M234.688 389.996C248.252 389.996 259.249 378.999 259.249 365.435C259.249 351.87 248.252 340.874 234.688 340.874C221.123 340.874 210.127 351.87 210.127 365.435C210.127 378.999 221.123 389.996 234.688 389.996Z" fill="#FFB8B8"/>
<path d="M232.085 483.248L231.909 483.077C231.578 482.757 198.853 450.698 203.088 421.053C204.899 408.373 215.158 400.272 232.756 397.622C239.221 396.662 245.815 398.068 251.326 401.581C256.838 405.094 260.896 410.478 262.756 416.743L280.156 476.228L232.085 483.248Z" fill="#CCCCCC"/>
<path d="M215.336 506.051L192.018 482.88C190.423 481.287 189.266 479.31 188.656 477.14C188.047 474.97 188.006 472.679 188.538 470.489L199.827 424.57C200.165 423.194 200.782 421.902 201.639 420.774C202.497 419.646 203.577 418.706 204.812 418.012C206.048 417.319 207.413 416.886 208.822 416.741C210.231 416.596 211.656 416.742 213.007 417.169C215.581 417.999 217.732 419.799 219.003 422.187C220.274 424.575 220.565 427.364 219.816 429.963L207.931 470.36L227.149 490.996L215.336 506.051Z" fill="#CCCCCC"/>
<path d="M340.408 426.973C339.791 428.307 338.89 429.49 337.766 430.439C336.643 431.387 335.325 432.078 333.906 432.462C332.487 432.846 331.001 432.914 329.553 432.662C328.105 432.41 326.73 431.843 325.524 431.001L294.395 447.136L295.77 433.43L323.367 416.351C324.915 414.42 327.117 413.123 329.557 412.707C331.997 412.291 334.505 412.784 336.605 414.093C338.706 415.403 340.253 417.437 340.954 419.811C341.655 422.184 341.46 424.733 340.408 426.973H340.408Z" fill="#FFB8B8"/>
<path d="M322.125 437.175L291.778 450.289C289.758 451.155 287.55 451.486 285.365 451.252C283.18 451.017 281.091 450.225 279.301 448.95L240.712 421.301C239.561 420.476 238.591 419.423 237.862 418.208C237.134 416.992 236.662 415.641 236.477 414.236C236.292 412.831 236.398 411.403 236.787 410.041C237.176 408.679 237.84 407.41 238.739 406.315C240.466 404.233 242.936 402.905 245.625 402.612C248.315 402.319 251.013 403.085 253.147 404.747L286.236 430.789L312.536 420.614L322.125 437.175Z" fill="#CCCCCC"/>
<path d="M238.759 373.305C241.789 369.509 247.45 369.304 251.612 366.8C257.064 363.52 259.318 356.189 257.561 350.074C255.804 343.959 250.623 339.193 244.683 336.914C238.742 334.635 232.133 334.606 225.867 335.708C216.537 337.349 207.351 341.703 201.66 349.277C195.97 356.851 194.522 367.943 199.679 375.89C202.049 379.542 205.708 382.557 206.654 386.807C207.897 392.386 203.983 397.768 199.79 401.653C195.013 406.079 189.533 409.786 185.348 414.776C181.163 419.765 178.373 426.582 180.282 432.808C181.882 438.024 186.538 441.867 191.644 443.792C196.749 445.716 202.31 445.995 207.765 446.101C213.062 446.205 218.688 446.076 223.151 443.22C227.928 440.162 230.479 434.362 230.667 428.693C230.856 423.024 228.961 417.47 226.422 412.398C224.909 409.375 223.15 406.446 222.144 403.218C221.139 399.99 220.965 396.328 222.575 393.355C224.267 390.231 227.692 388.346 231.179 387.661C231.36 387.625 231.552 387.594 231.752 387.565C232.744 387.437 233.7 387.108 234.562 386.6C235.423 386.091 236.173 385.413 236.765 384.606C237.357 383.8 237.779 382.882 238.006 381.907C238.233 380.933 238.26 379.923 238.086 378.938C237.688 376.723 237.723 374.604 238.759 373.305Z" fill="black"/>
</svg>
